<?xml version="1.0" encoding="utf-8"?>
<!-- Generator: Adobe Illustrator 22.1.0, SVG Export Plug-In . SVG Version: 6.00 Build 0)  -->
<svg version="1.1" id="Layer_1" xmlns="http://www.w3.org/2000/svg" xmlns:xlink="http://www.w3.org/1999/xlink" x="0px" y="0px"
	 viewBox="0 0 200 200" style="enable-background:new 0 0 200 200;" xml:space="preserve">
<style type="text/css">
	.st0{fill:#2064D8;}
	.st1{fill:none;}
</style>
<g>
	<g>
		<g>
			<path class="st0" d="M152,141.1v6.9c-1.4-0.4-2.5-0.8-3.1-1.4c-0.2-0.2-0.4-0.4-0.6-0.6c-0.4-0.4-0.4-1-0.4-1.6
				C148,142.3,149.3,141.3,152,141.1z"/>
			<path class="st0" d="M157.2,156c-0.8-0.6-1.9-1-3.3-1.6v6.9c3.1,0,4.6-1.2,4.6-3.1C158.4,157.4,158,156.6,157.2,156z"/>
			<path class="st0" d="M151.3,135.8c0.2,0,0.2,0,0.4,0v-0.6C151.4,135.4,151.4,135.6,151.3,135.8z M162.4,123.3
				c-1.4-0.4-2.7-0.8-4.1-1c-1.8-0.4-3.7-0.6-5.5-0.6c-17.3,0-31.1,14-31.1,31.1c0,1.9,0.2,3.9,0.6,5.5c0.2,1.4,0.6,2.7,1,4.1
				c4.1,12.5,15.8,21.5,29.6,21.5c17.3,0,31.1-14,31.1-31.1C184,139.1,174.9,127.3,162.4,123.3z M163.9,161.8
				c-0.6,1.2-1.4,1.9-2.3,2.7c-0.9,0.8-2.1,1.2-3.5,1.6s-2.7,0.6-4.1,0.6v4.8h-2.5v-4.8c-1.9-0.2-4.1-0.6-5.9-1.2
				c-1.9-0.8-3.7-1.6-5.2-2.7l2.7-5.2c0.2,0.2,0.6,0.6,1.2,1s1.2,0.8,2.1,1.2c0.8,0.4,1.8,0.8,2.7,1c1,0.4,1.9,0.6,3.1,0.6V154
				c-0.2,0-0.6-0.2-0.8-0.2s-0.6-0.2-0.8-0.2c-1.6-0.4-2.7-0.8-3.9-1.4c-1.2-0.4-1.9-1-2.7-1.8l-0.2-0.2c-0.6-0.6-1.2-1.4-1.4-2.1
				c-0.2-0.6-0.4-1.2-0.4-1.9c0-0.4,0-0.8,0-1.2c0-1.4,0.2-2.7,0.8-3.9s1.2-2.1,2.1-2.9s1.9-1.4,3.1-1.9c1.2-0.4,2.3-0.6,3.5-0.8
				c0.2,0,0.2,0,0.4,0v-4.4h2.5v4.4c0.6,0,1.4,0.2,1.9,0.2c1.2,0.2,2.3,0.6,3.3,1c1.6,0.6,3.1,1.4,4.2,2.1l-2.7,4.8
				c-0.2-0.2-0.6-0.4-1-0.8s-1-0.6-1.8-1c-0.6-0.4-1.4-0.6-2.1-0.8c-0.8-0.2-1.6-0.4-2.5-0.6v7.5l1.2,0.2c1.6,0.4,2.9,0.8,4.1,1.4
				c1.2,0.4,2.3,1,3.1,1.8s1.6,1.6,1.9,2.5c0.4,1,0.8,2.1,0.8,3.5C164.7,159.3,164.5,160.6,163.9,161.8z"/>
		</g>
	</g>
	<g>
		<path class="st1" d="M20,67.3v103h93.1c-2.4-5-3.9-10.7-4.1-16.6H87.4c-1.4,0-2.6-1.2-2.8-2.8v-20.7c0-1.6,1.4-2.8,2.8-2.8h25
			c1.4,0,2.5,1.1,2.8,2.2c5.2-8.8,13.5-15.5,23.4-18.8h-4.1c-1.6,0-2.8-1.2-2.8-2.8V87.3c0-1.6,1.4-2.8,2.8-2.8h25
			c1.6,0,2.8,1.4,2.8,2.8V108c0,0.6-0.2,1.2-0.5,1.6c6.8,1.5,13.1,4.6,18.3,9V67.4L20,67.3L20,67.3z M68.4,150.9
			c0,1.6-1.4,2.8-2.8,2.8h-25c-1.4,0-2.6-1.2-2.8-2.8v-20.7c0-1.6,1.4-2.8,2.8-2.8h25c1.6,0,2.8,1.4,2.8,2.8V150.9z M68.4,108
			c0,1.6-1.4,2.8-2.8,2.8h-25c-1.4,0-2.6-1.2-2.8-2.8V87.3c0-1.6,1.4-2.8,2.8-2.8h25c1.6,0,2.8,1.4,2.8,2.8V108z M115.2,108
			c0,1.6-1.4,2.8-2.8,2.8h-25c-1.4,0-2.6-1.2-2.8-2.8V87.3c0-1.6,1.4-2.8,2.8-2.8h25c1.6,0,2.8,1.4,2.8,2.8V108z"/>
		<path class="st0" d="M113.1,170.3H20v-103h160v51.2c7.8,6.5,13.2,15.7,15,26.1v-119c0-6-5-11-11-11h-22v19c0,7.4-6,13.2-13.4,13.2
			h-18.2c-7.4,0-13.4-6-13.4-13.2v-19H83v19c0,7.4-6,13.2-13.4,13.2H51.4c-7.4,0-13.4-6-13.4-13.2v-19H16.1c-6,0-11,5-11,11v148.9
			c0,6,5,11,11,11h109.1C120,181.5,115.9,176.2,113.1,170.3z"/>
		<path class="st0" d="M65.6,84.3h-25c-1.4,0-2.8,1.2-2.8,2.8v20.7c0.2,1.6,1.4,2.8,2.8,2.8h25c1.4,0,2.8-1.2,2.8-2.8V87.1
			C68.4,85.7,67.2,84.3,65.6,84.3z"/>
		<path class="st0" d="M161.6,109.5c0.3-0.5,0.5-1,0.5-1.6V87.2c0-1.4-1.2-2.8-2.8-2.8h-25c-1.4,0-2.8,1.2-2.8,2.8V108
			c0,1.6,1.2,2.8,2.8,2.8h4.1c4.3-1.5,9-2.3,13.7-2.3C155.5,108.5,158.6,108.8,161.6,109.5z"/>
		<path class="st0" d="M112.3,84.3h-25c-1.4,0-2.8,1.2-2.8,2.8v20.7c0.2,1.6,1.4,2.8,2.8,2.8h25c1.4,0,2.8-1.2,2.8-2.8V87.1
			C115.2,85.7,114,84.3,112.3,84.3z"/>
		<path class="st0" d="M65.6,127.3h-25c-1.4,0-2.8,1.2-2.8,2.8v20.7c0.2,1.6,1.4,2.8,2.8,2.8h25c1.4,0,2.8-1.2,2.8-2.8v-20.7
			C68.4,128.7,67.2,127.3,65.6,127.3z"/>
		<path class="st0" d="M115.1,129.6c-0.3-1.2-1.4-2.2-2.8-2.2h-25c-1.4,0-2.8,1.2-2.8,2.8v20.7c0.2,1.6,1.4,2.8,2.8,2.8h21.6
			c0-0.6,0-1.3,0-2C109,143.6,111.2,136,115.1,129.6z"/>
		<path class="st0" d="M51.4,36.8h18.2c1.8,0,3.2-1.4,3.2-3.2V14.8H48.2v18.8C48.2,35.3,49.6,36.8,51.4,36.8z"/>
		<path class="st0" d="M130.4,36.8h18.2c1.8,0,3.2-1.4,3.2-3.2V14.8H127v18.8C126.9,35.3,128.5,36.8,130.4,36.8z"/>
		<path class="st0" d="M161.6,109.5c-3.1-0.7-6.1-1-9.4-1c-4.8,0-9.4,0.8-13.7,2.3h20.8C160.2,110.7,161.1,110.3,161.6,109.5z"/>
	</g>
</g>
</svg>
